<?xml version="1.0" standalone="no"?>
<!DOCTYPE svg PUBLIC "-//W3C//DTD SVG 20010904//EN"
 "http://www.w3.org/TR/2001/REC-SVG-20010904/DTD/svg10.dtd">
<svg version="1.0" xmlns="http://www.w3.org/2000/svg"
 width="1080.000000pt" height="1080.000000pt" viewBox="0 0 1080.000000 1080.000000"
 preserveAspectRatio="xMidYMid meet">

<g transform="translate(0.000000,1080.000000) scale(0.100000,-0.100000)"
fill="#000000" stroke="none">
<path d="M482 5608 c-9 -9 -12 -140 -12 -529 0 -462 2 -518 16 -523 9 -3 152
-6 319 -6 300 0 304 0 316 21 8 15 8 28 1 44 -10 22 -15 23 -184 27 -191 4
-225 13 -287 71 -18 18 -44 55 -57 82 -24 50 -24 51 -24 426 0 278 -3 378 -12
387 -7 7 -24 12 -38 12 -14 0 -31 -5 -38 -12z m63 -40 c3 -13 6 -189 7 -393 3
-415 0 -397 79 -476 66 -66 91 -73 289 -79 167 -5 175 -6 175 -25 0 -19 -8
-20 -280 -23 -154 -1 -290 0 -302 3 l-23 5 0 499 c0 274 3 501 7 504 15 15 43
6 48 -15z"/>
<path d="M2090 5600 c-19 -19 -20 -33 -20 -519 0 -448 2 -501 16 -516 23 -23
66 -15 81 15 9 18 13 100 13 303 l0 277 25 12 c19 8 29 8 45 -3 13 -8 62 -103
121 -236 90 -197 104 -223 131 -234 59 -24 72 -7 183 241 94 211 102 225 128
228 57 7 57 5 57 -304 0 -244 2 -285 16 -298 22 -23 71 -20 84 3 6 13 10 193
10 515 0 483 -1 497 -20 516 -25 25 -62 26 -83 2 -9 -10 -69 -137 -133 -282
-140 -318 -149 -336 -173 -350 -33 -17 -76 -12 -99 13 -12 12 -80 153 -153
312 -72 160 -138 298 -147 308 -20 23 -57 22 -82 -3z m205 -312 c75 -167 144
-311 153 -321 8 -9 32 -22 52 -28 31 -9 44 -8 73 6 43 20 40 16 201 380 111
252 115 260 143 260 l28 0 0 -505 c0 -498 0 -505 -20 -505 -19 0 -20 8 -25
291 -5 320 -5 318 -67 330 -29 5 -39 2 -58 -17 -13 -13 -63 -114 -111 -224
-48 -110 -94 -208 -102 -217 -18 -21 -55 -24 -69 -5 -6 6 -54 110 -108 230
-55 121 -106 222 -116 228 -31 16 -69 10 -94 -16 l-25 -24 0 -284 c0 -251 -2
-286 -16 -291 -9 -3 -20 -4 -25 0 -10 6 -13 997 -2 1007 3 4 16 7 28 7 20 0
40 -38 160 -302z"/>
<path d="M3243 5574 c5 -52 11 -60 49 -69 51 -13 90 61 52 99 -9 10 -33 16
-61 16 l-46 0 6 -46z m90 2 c8 -21 -16 -49 -39 -45 -12 3 -20 14 -22 32 -3 24
0 27 26 27 17 0 32 -6 35 -14z"/>
<path d="M6302 5603 c-13 -12 -83 -189 -192 -488 -95 -258 -176 -482 -180
-497 -10 -33 12 -68 43 -68 32 0 42 10 67 62 29 62 86 120 152 155 47 25 63
28 148 28 85 0 101 -3 148 -28 63 -33 120 -88 147 -142 29 -58 45 -75 71 -75
13 0 30 9 38 21 12 18 12 27 2 63 -38 121 -350 954 -363 969 -9 9 -26 17 -38
17 -13 0 -32 -8 -43 -17z m88 -70 c131 -346 340 -930 338 -942 -2 -9 -11 -17
-20 -19 -11 -2 -26 16 -49 58 -66 124 -179 193 -319 193 -136 0 -252 -68 -315
-185 -15 -29 -33 -56 -38 -60 -14 -9 -37 2 -37 17 0 9 313 871 355 978 5 10
18 17 35 17 26 0 31 -6 50 -57z"/>
<path d="M6330 5505 c-35 -86 -149 -416 -155 -446 -4 -23 -1 -49 10 -77 44
-108 175 -141 264 -66 37 31 66 103 57 144 -4 25 -57 178 -151 440 l-13 35
-12 -30z m150 -469 c0 -78 -60 -136 -141 -136 -76 0 -139 62 -139 138 0 24 81
271 132 401 9 23 17 5 79 -169 38 -109 69 -212 69 -234z"/>
<path d="M9490 5287 c-70 -17 -106 -36 -152 -82 -80 -80 -98 -161 -98 -436 0
-170 2 -198 17 -210 11 -10 53 -15 138 -17 205 -6 315 20 381 89 24 25 26 32
16 54 -14 30 -62 35 -83 8 -23 -28 -91 -53 -145 -53 -92 0 -158 43 -198 130
-28 62 -30 232 -3 302 51 131 213 174 332 89 52 -38 70 -39 91 -6 15 23 15 27
0 49 -21 33 -130 84 -191 90 -27 3 -75 0 -105 -7z m200 -41 c44 -23 80 -55 80
-73 0 -21 -26 -15 -76 18 -37 26 -59 33 -115 37 -60 4 -75 1 -122 -22 -58 -28
-99 -76 -123 -143 -18 -53 -18 -217 1 -281 31 -104 115 -166 225 -166 66 0
103 13 163 57 21 17 30 18 39 9 19 -19 -2 -43 -67 -77 -58 -30 -61 -30 -243
-33 l-184 -4 4 244 c3 224 5 247 25 290 29 62 99 131 154 151 58 22 190 18
239 -7z"/>
<path d="M1260 5276 c-8 -11 -11 -81 -8 -263 l3 -249 33 -66 c38 -78 89 -121
172 -145 74 -21 182 -13 252 20 95 44 123 90 73 123 -23 15 -27 14 -86 -23
-57 -35 -68 -38 -133 -38 -91 1 -139 23 -177 84 -36 56 -37 100 -5 138 l24 28
203 3 c136 2 208 7 217 15 11 9 13 27 9 72 -16 162 -83 261 -206 303 -53 18
-355 16 -371 -2z m395 -35 c92 -43 144 -129 153 -253 l5 -78 -197 0 c-222 0
-242 -5 -271 -66 -14 -31 -15 -42 -5 -79 16 -56 64 -113 114 -136 80 -36 206
-22 273 31 32 25 53 26 53 1 0 -46 -112 -93 -220 -94 -135 0 -225 60 -265 176
-16 43 -19 91 -23 285 l-4 232 174 0 c147 0 179 -3 213 -19z"/>
<path d="M1445 5204 c-51 -26 -85 -66 -100 -117 -17 -56 -9 -84 31 -116 25
-20 38 -21 210 -21 l184 0 -6 48 c-12 91 -62 175 -126 208 -37 19 -155 18
-193 -2z m168 -18 c21 -8 46 -21 56 -30 26 -23 59 -95 67 -144 l7 -43 -173 3
c-167 3 -172 4 -191 27 -27 33 -24 70 10 123 44 69 136 95 224 64z"/>
<path d="M3620 5271 c-6 -13 -10 -142 -10 -351 0 -209 4 -338 10 -351 12 -22
59 -26 78 -7 9 9 12 77 12 242 0 137 5 247 11 271 40 143 270 169 335 37 17
-32 20 -70 24 -287 3 -137 9 -256 13 -262 13 -20 65 -16 77 6 6 12 10 112 10
253 0 205 3 238 19 274 33 72 112 112 199 100 60 -8 96 -30 124 -73 22 -37 23
-47 28 -293 3 -140 9 -261 13 -267 13 -20 65 -16 77 6 6 12 10 111 10 254 0
182 -3 245 -16 286 -43 145 -201 214 -372 162 -88 -26 -157 -27 -247 -1 -57
16 -100 20 -227 20 -145 0 -158 -1 -168 -19z m423 -33 l80 -22 81 19 c50 12
118 20 178 20 91 0 99 -2 139 -30 27 -19 54 -50 71 -84 l28 -54 -2 -256 c-3
-220 -5 -256 -18 -256 -13 0 -16 37 -21 245 -4 135 -12 261 -18 281 -22 69
-101 119 -189 119 -94 0 -159 -37 -194 -109 -21 -43 -23 -62 -26 -286 -2 -138
-8 -244 -14 -250 -6 -7 -14 -3 -24 9 -11 16 -14 66 -14 251 0 147 -4 245 -11
266 -27 81 -106 124 -212 117 -81 -5 -135 -38 -166 -100 -20 -41 -21 -60 -21
-279 0 -182 -3 -239 -13 -254 -33 -44 -37 -10 -37 336 l0 339 161 0 c135 0
175 -4 242 -22z"/>
<path d="M4872 5278 c-19 -19 -16 -410 4 -499 38 -166 152 -249 326 -237 53 4
86 14 136 39 74 38 88 55 78 92 -10 40 -38 42 -92 7 -78 -49 -141 -60 -217
-39 -84 23 -153 126 -127 189 21 51 38 55 260 60 l205 5 -1 85 c-1 101 -21
156 -84 224 -67 72 -117 86 -313 86 -114 0 -167 -4 -175 -12z m404 -42 c91
-42 144 -135 147 -258 l2 -63 -200 -5 c-215 -5 -239 -11 -266 -61 -32 -60 25
-180 104 -218 63 -31 165 -29 232 4 28 13 58 30 67 37 13 10 20 10 29 1 20
-20 2 -40 -66 -74 -59 -29 -76 -33 -143 -32 -153 1 -237 60 -276 193 -13 42
-16 102 -16 277 l0 223 168 0 c154 0 171 -2 218 -24z"/>
<path d="M5039 5192 c-31 -20 -53 -45 -68 -74 -29 -62 -27 -99 8 -137 l29 -31
187 0 188 0 -6 51 c-9 73 -48 151 -93 185 -33 26 -47 29 -118 32 -75 3 -84 1
-127 -26z m183 -4 c67 -20 128 -111 128 -192 l0 -26 -158 0 c-171 0 -193 6
-213 57 -7 20 -5 35 11 68 25 52 47 73 97 91 48 17 85 17 135 2z"/>
<path d="M7073 5280 c-143 -29 -213 -151 -213 -370 0 -200 65 -329 182 -361
62 -16 167 -14 211 5 29 13 42 14 59 5 18 -10 20 -17 16 -74 -11 -127 -78
-195 -194 -195 -50 0 -73 6 -119 30 -62 33 -84 37 -103 18 -26 -26 -13 -57 35
-88 64 -41 113 -53 203 -48 117 5 196 54 248 153 l27 50 3 430 c3 399 2 430
-14 442 -20 15 -270 17 -341 3z m332 -435 c0 -371 -2 -414 -18 -454 -27 -65
-61 -105 -119 -137 -46 -25 -63 -29 -133 -29 -84 1 -165 27 -200 64 -14 16
-14 20 -1 30 12 11 21 9 43 -6 62 -43 139 -58 212 -42 95 20 150 91 165 211 7
53 5 60 -18 83 -29 29 -46 31 -110 9 -34 -12 -67 -15 -113 -11 -134 10 -202
90 -225 260 -22 165 19 333 95 391 53 41 77 45 257 43 l165 -2 0 -410z"/>
<path d="M7080 5208 c-86 -24 -125 -83 -142 -214 -16 -115 1 -240 39 -303 76
-122 260 -122 335 0 55 88 60 328 9 427 -42 82 -141 119 -241 90z m150 -33
c76 -39 105 -127 98 -300 -3 -94 -8 -117 -29 -155 -36 -65 -78 -90 -154 -90
-76 0 -118 25 -154 90 -21 38 -26 61 -29 155 -7 175 17 250 92 296 38 23 134
26 176 4z"/>
<path d="M7666 5274 c-13 -13 -16 -44 -16 -187 0 -281 23 -391 97 -469 58 -61
199 -93 304 -68 105 24 182 86 160 129 -19 34 -47 35 -93 3 -61 -41 -111 -55
-175 -49 -92 10 -160 68 -170 148 -7 47 9 82 44 98 15 7 97 11 218 11 229 0
219 -6 204 114 -17 137 -79 226 -185 266 -47 17 -78 20 -214 20 -131 0 -161
-3 -174 -16z m400 -35 c90 -43 146 -139 148 -253 l1 -71 -200 -5 c-221 -6
-240 -10 -265 -69 -24 -59 8 -134 83 -195 34 -27 48 -31 112 -34 82 -5 134 8
183 45 18 14 40 22 48 19 31 -12 8 -41 -58 -75 -58 -29 -78 -34 -140 -35 -136
0 -220 49 -270 159 -21 47 -22 66 -26 293 l-4 242 173 0 c154 0 177 -2 215
-21z"/>
<path d="M7855 5206 c-73 -32 -130 -137 -105 -196 24 -57 36 -60 242 -60 l188
0 -6 33 c-21 122 -65 196 -131 223 -41 18 -149 17 -188 0z m198 -33 c35 -21
82 -104 92 -165 l6 -38 -164 0 c-151 0 -166 2 -191 21 -63 50 -9 167 93 200
39 13 128 3 164 -18z"/>
<path d="M8477 5275 c-15 -15 -17 -53 -17 -359 0 -253 3 -345 12 -354 19 -19
66 -15 78 7 6 12 10 109 10 247 0 253 6 290 56 334 104 91 269 50 303 -75 6
-23 11 -136 11 -270 0 -248 1 -255 52 -255 47 0 50 19 46 293 -4 277 -6 290
-68 361 -63 71 -93 80 -291 84 -154 3 -178 2 -192 -13z m421 -47 c22 -15 54
-49 69 -75 l28 -48 3 -263 c3 -237 2 -263 -13 -269 -10 -3 -21 0 -26 8 -5 8
-9 121 -9 252 0 292 -9 324 -105 368 -78 36 -209 17 -257 -37 -46 -52 -51 -88
-56 -342 -4 -204 -7 -244 -19 -249 -8 -3 -19 0 -24 8 -10 16 -12 638 -3 664 6
15 27 16 189 13 178 -3 182 -3 223 -30z"/>
<path d="M3260 5261 c-6 -13 -10 -140 -10 -346 0 -206 4 -333 10 -346 12 -22
59 -26 78 -7 17 17 17 689 0 706 -19 19 -66 15 -78 -7z m59 -15 c8 -9 11 -108
9 -342 -3 -321 -3 -329 -23 -329 -20 0 -20 8 -23 330 -1 181 0 336 3 342 6 17
20 16 34 -1z"/>
<path d="M9902 5268 c-7 -7 -12 -23 -12 -35 0 -13 40 -136 90 -272 112 -310
124 -356 116 -439 -8 -80 -41 -169 -69 -186 -12 -8 -39 -17 -59 -20 -44 -8
-64 -35 -48 -66 9 -16 21 -20 61 -20 72 0 125 33 159 99 18 35 330 891 330
906 0 34 -66 59 -88 32 -6 -6 -45 -116 -88 -242 -42 -127 -81 -236 -87 -242
-5 -7 -20 -13 -33 -13 -26 0 -24 -3 -124 285 -34 99 -68 190 -76 203 -16 24
-53 29 -72 10z m134 -250 c44 -127 87 -242 97 -255 21 -26 54 -30 82 -10 11 9
48 104 99 253 72 211 84 239 104 242 16 3 22 -2 22 -15 0 -25 -316 -890 -336
-921 -19 -30 -96 -64 -132 -60 -42 5 -32 29 18 44 26 7 56 24 67 36 52 56 80
231 52 333 -6 22 -53 158 -106 302 -52 144 -92 267 -88 273 3 5 14 10 24 10
15 0 33 -44 97 -232z"/>
</g>
</svg>
